<?xml version="1.0" encoding="UTF-8" standalone="no"?><!-- Generator: Gravit.io --><svg xmlns="http://www.w3.org/2000/svg" xmlns:xlink="http://www.w3.org/1999/xlink" style="isolation:isolate" viewBox="706.689 349.766 456.623 342.468" width="456.623pt" height="342.468pt"><defs><clipPath id="_clipPath_7NDf9ozcmRbv8D8wN8gWEtUA4bG5PIyK"><rect x="706.689" y="349.766" width="456.623" height="342.468"/></clipPath></defs><g clip-path="url(#_clipPath_7NDf9ozcmRbv8D8wN8gWEtUA4bG5PIyK)"><g><path d=" M 1106.271 521.009 C 1106.271 615.57 1029.605 692.234 935.045 692.234 C 840.47 692.234 763.797 615.57 763.797 521.009 C 763.797 426.433 840.47 349.766 935.045 349.766 C 1029.605 349.766 1106.271 426.433 1106.271 521.009 Z " fill="rgb(89,92,94)"/><path d=" M 1090.698 521.009 C 1090.698 606.602 1021.311 675.997 935.713 675.997 C 850.121 675.997 780.73 606.602 780.73 521.009 C 780.73 435.409 850.121 366.011 935.713 366.011 C 1021.311 366.011 1090.698 435.409 1090.698 521.009" fill="rgb(74,73,71)"/><path d=" M 961.504 471.311 L 961.504 471.311 C 961.487 471.28 961.489 471.279 961.49 471.279 C 961.489 471.279 961.487 471.278 961.47 471.256 C 961.461 471.247 961.453 471.237 961.445 471.228 L 961.439 471.223 L 961.424 471.213 C 961.327 471.137 961.205 471.041 961.058 470.925 C 960.913 470.812 960.759 470.694 960.608 470.582 C 960.481 470.484 960.343 470.382 960.194 470.274 C 960.044 470.167 959.881 470.052 959.707 469.932 C 959.266 469.639 958.764 469.345 958.281 469.079 C 957.762 468.833 957.234 468.595 956.713 468.412 C 956.292 468.28 955.823 468.175 955.3 468.107 C 955.191 468.105 955.083 468.104 954.975 468.104 C 954.491 468.104 953.986 468.12 953.499 468.141 C 953.139 468.17 952.785 468.213 952.449 468.272 C 952.106 468.336 951.77 468.415 951.442 468.513 C 950.788 468.693 950.185 468.889 949.67 469.062 C 949.273 469.185 948.721 469.269 948.191 469.286 L 948.166 469.286 L 948.102 469.281 C 947.998 469.269 947.892 469.259 947.792 469.253 C 947.998 469.568 948.245 469.966 948.45 470.449 C 948.641 470.961 948.816 471.509 948.963 472.049 C 949.077 472.533 949.179 472.95 949.242 473.21 C 949.337 473.543 949.44 473.821 949.532 474.022 C 949.646 474.247 949.767 474.455 949.885 474.654 C 949.997 474.841 950.113 475.021 950.238 475.202 C 950.377 475.403 950.532 475.623 950.696 475.853 C 950.895 476.122 951.113 476.408 951.347 476.726 C 951.543 477.028 951.741 477.334 951.933 477.622 C 952.149 477.941 952.367 478.228 952.552 478.415 C 952.702 478.536 952.843 478.629 952.971 478.702 L 953.013 478.728 C 953.29 478.917 953.575 479.11 953.857 479.308 L 953.892 479.335 C 954.133 479.54 954.345 479.75 954.516 479.926 C 954.63 480.041 954.725 480.132 954.797 480.193 C 954.896 480.275 954.982 480.342 955.082 480.406 C 955.291 480.551 955.541 480.7 955.83 480.899 C 956.263 481.212 956.765 481.583 957.394 481.996 C 957.527 482.077 957.663 482.158 957.798 482.236 C 957.696 481.707 957.635 481.164 957.616 480.619 C 957.613 480.517 957.611 480.413 957.611 480.305 C 957.611 480.302 957.609 480.291 957.611 480.266 C 957.611 479.261 957.763 478.242 958.099 477.239 C 958.1 477.233 958.103 477.227 958.105 477.222 C 958.329 476.548 958.645 475.879 959.043 475.283 C 959.131 475.151 959.225 475.023 959.323 474.901 C 959.421 474.779 959.523 474.661 959.625 474.544 C 959.724 474.425 959.823 474.308 959.933 474.198 C 960.048 474.089 960.189 473.992 960.348 473.911 C 960.458 473.799 960.568 473.697 960.675 473.6 C 960.789 473.506 960.891 473.411 960.982 473.314 C 961.084 473.169 961.18 473.015 961.255 472.852 C 961.337 472.697 961.403 472.55 961.457 472.411 C 961.493 472.279 961.517 472.154 961.537 472.041 C 961.539 471.925 961.549 471.816 961.56 471.71 C 961.566 471.53 961.524 471.35 961.504 471.311 L 961.504 471.311 Z  M 1002.6 468.363 C 1002.161 467.679 1001.638 467.037 1001.133 466.463 C 1000.579 465.887 999.947 465.366 999.241 464.862 C 998.48 464.304 997.653 463.723 996.704 463.035 C 996.166 462.659 995.576 462.252 994.944 461.81 C 994.326 461.377 993.662 460.925 992.926 460.489 C 992.012 460.037 990.977 459.606 989.88 459.223 C 988.64 458.845 987.404 458.536 986.231 458.291 C 985.059 458.049 984.102 457.839 983.329 457.651 C 982.568 457.462 981.948 457.31 981.43 457.194 C 980.732 457.033 980.119 456.917 979.536 456.828 C 979.264 456.786 978.999 456.75 978.732 456.717 C 978.536 456.691 978.367 456.582 978.247 456.414 C 978.162 456.291 978.111 456.143 978.11 455.983 C 978.11 455.934 978.114 455.872 978.131 455.814 C 978.49 454.475 979.845 453.012 980.939 452.236 C 981.836 451.631 982.825 451.387 983.794 451.283 C 984.764 451.179 985.696 451.204 986.534 451.118 C 986.947 451.061 987.381 451.035 987.841 451.035 C 988.087 451.035 988.339 451.042 988.601 451.056 C 989.381 451.097 990.24 451.234 991.198 451.393 L 991.256 451.406 C 991.414 451.452 991.565 451.496 991.708 451.539 C 991.454 451.264 991.162 450.965 990.853 450.659 C 990.254 450.051 989.593 449.412 989.008 448.848 C 987.914 447.83 987.011 447.129 986.434 446.691 C 985.814 446.25 985.165 445.83 984.472 445.424 C 983.789 445.01 983.089 444.608 982.365 444.202 C 981.693 443.791 981.046 443.394 980.437 443.026 C 979.839 442.677 979.256 442.371 978.684 442.125 C 978.117 441.88 977.545 441.692 976.935 441.564 C 976.548 441.483 976.141 441.427 975.709 441.396 C 975.467 441.379 975.218 441.37 974.96 441.37 L 974.956 441.37 L 974.956 441.37 L 974.953 441.37 C 974.226 441.371 973.43 441.421 972.592 441.494 C 971.741 441.579 970.868 441.663 970.01 441.707 C 969.56 441.73 969.121 441.741 968.692 441.741 C 968.225 441.74 967.768 441.728 967.324 441.708 C 967.081 441.7 966.841 441.696 966.598 441.696 C 966.046 441.696 965.483 441.718 964.905 441.762 C 964.121 441.896 963.347 442.084 962.597 442.323 C 961.811 442.588 961.076 442.854 960.433 443.09 C 959.562 443.426 958.73 443.724 958.04 444.115 L 958.016 444.126 L 957.947 444.158 L 957.918 444.17 C 957.358 444.363 956.796 444.553 956.249 444.786 L 956.491 445.381 L 956.51 445.448 L 956.538 445.589 L 956.544 445.675 L 956.544 445.681 C 956.544 445.75 956.549 445.814 956.56 445.88 C 956.594 446.103 956.67 446.294 956.773 446.488 C 956.958 446.801 957.23 447.193 957.431 447.717 C 957.64 448.181 957.817 448.668 958.016 449.172 C 958.243 449.625 958.52 450.104 958.86 450.575 C 959.176 450.913 959.499 451.249 959.821 451.593 C 960.151 451.942 960.479 452.291 960.795 452.64 C 961.463 453.377 962.014 454.153 962.466 454.982 L 962.489 455.031 C 962.863 455.93 963.175 456.848 963.472 457.78 C 963.736 458.717 963.963 459.637 964.176 460.528 C 964.4 461.384 964.631 462.179 964.846 462.935 C 964.957 463.312 965.068 463.686 965.173 464.086 C 965.255 464.457 965.327 464.827 965.386 465.189 C 965.458 465.584 965.513 466.007 965.549 466.463 C 965.6 466.952 965.652 467.498 965.704 468.126 C 965.76 468.764 965.79 469.504 965.79 470.326 L 965.79 470.434 L 965.79 470.471 C 965.76 470.945 965.699 471.442 965.594 471.944 C 965.493 472.435 965.364 472.899 965.222 473.348 C 965.09 473.762 964.957 474.155 964.801 474.548 L 964.771 474.611 C 964.577 474.959 964.371 475.279 964.145 475.576 L 964.104 475.624 C 963.887 475.849 963.695 476.045 963.535 476.216 C 963.364 476.4 963.216 476.563 963.083 476.732 C 962.932 476.902 962.769 477.086 962.565 477.29 C 962.358 477.489 962.143 477.691 961.969 477.867 C 961.784 478.077 961.629 478.287 961.512 478.472 C 961.387 478.674 961.286 478.856 961.212 479.001 C 961.091 479.293 961.005 479.54 960.947 479.74 C 960.89 479.977 960.849 480.198 960.821 480.409 C 960.804 480.597 960.796 480.8 960.795 481.028 C 960.795 481.085 960.796 481.148 960.797 481.181 C 960.816 481.46 960.853 481.77 960.911 482.114 C 960.947 482.192 960.979 482.251 961.002 482.286 C 961.051 482.358 961.093 482.408 961.143 482.456 C 961.203 482.514 961.288 482.586 961.365 482.647 C 961.46 482.716 961.575 482.788 961.689 482.85 C 961.885 482.95 962.148 483.057 962.471 483.171 C 962.867 483.314 963.307 483.469 963.78 483.617 C 964.206 483.751 964.625 483.849 964.981 483.909 C 965.379 483.949 965.757 483.964 966.12 483.976 C 966.802 483.925 967.479 483.815 968.15 483.661 C 968.696 483.514 969.219 483.374 969.728 483.23 C 970.226 483.031 970.776 482.748 971.389 482.353 C 972.116 481.77 972.885 481.108 973.681 480.405 C 974.484 479.727 975.286 479.089 976.089 478.498 C 977.412 477.547 978.751 476.684 980.097 475.808 C 980.744 475.388 981.391 474.966 982.038 474.55 C 982.686 474.134 983.332 473.724 983.975 473.329 C 985.265 472.548 986.584 471.874 987.901 471.347 L 987.947 471.331 C 989.202 470.95 990.427 470.689 991.656 470.501 C 992.815 470.302 994.058 470.084 995.394 469.88 C 996.739 469.713 997.986 469.61 999.125 469.564 C 999.297 469.557 999.465 469.553 999.631 469.553 C 1000.2 469.553 1000.723 469.594 1001.206 469.66 C 1001.502 469.701 1001.776 469.752 1002.044 469.808 L 1002.066 469.814 C 1002.732 470.004 1003.37 470.233 1003.968 470.46 C 1003.572 469.802 1003.081 469.081 1002.6 468.363 L 1002.6 468.363 Z  M 937.786 519.374 C 936.224 515.494 934.777 511.876 933.618 508.938 C 932.755 506.67 932.035 504.753 931.445 503.132 C 931.046 502.065 930.673 501.052 930.294 500.071 C 929.916 499.089 929.52 498.112 929.091 497.113 C 928.574 496.012 927.999 494.821 927.36 493.484 C 926.993 492.688 926.601 491.823 926.205 490.927 C 925.808 490.029 925.419 489.11 925.032 488.166 C 924.643 487.214 924.28 486.306 923.944 485.438 C 923.618 484.608 923.309 483.797 923.023 483.002 C 922.486 481.523 922.027 480.099 921.59 478.708 C 921.104 477.176 920.632 475.767 920.164 474.48 C 919.736 473.312 919.314 472.176 918.897 471.068 C 918.474 469.951 918.041 468.847 917.597 467.769 C 917.001 466.406 916.409 465.078 915.844 463.795 C 915.349 462.675 914.882 461.602 914.438 460.574 C 913.994 459.545 913.566 458.548 913.154 457.587 C 912.747 456.622 912.362 455.696 912.004 454.816 C 911.65 453.94 911.31 453.111 910.988 452.339 C 910.548 451.304 910.141 450.367 909.802 449.53 C 909.127 447.862 908.678 446.626 908.45 445.938 C 908.363 445.674 908.132 444.986 907.878 444.304 C 907.626 443.629 907.328 442.945 907.209 442.695 C 906.95 442.166 906.714 441.689 906.506 441.265 C 906.192 440.629 905.95 440.113 905.791 439.751 C 905.634 439.392 905.554 439.194 905.553 439.191 C 905.504 439.069 905.524 438.929 905.606 438.829 L 905.884 438.485 L 905.965 438.413 C 906.123 438.314 906.258 438.154 906.384 437.934 C 906.524 437.684 906.647 437.405 906.754 437.085 C 906.862 436.76 906.95 436.404 907.031 436.022 C 907.113 435.683 907.192 435.332 907.261 434.944 C 907.306 434.687 907.325 434.433 907.325 434.181 C 907.325 434.146 907.325 434.108 907.324 434.069 C 907.25 433.343 907.028 432.669 906.685 432.06 C 906.317 431.435 905.843 430.891 905.283 430.451 C 904.832 430.097 904.324 429.812 903.748 429.609 C 903.169 429.405 902.518 429.276 901.851 429.218 C 901.416 429.18 900.983 429.162 900.569 429.163 C 900.342 429.162 900.121 429.168 899.907 429.179 C 899.308 429.207 898.774 429.29 898.294 429.462 C 897.813 429.634 897.377 429.899 896.995 430.279 C 896.615 430.659 896.287 431.155 896.033 431.799 C 895.678 432.698 895.305 433.885 895.308 434.901 C 895.307 435.361 895.381 435.781 895.549 436.134 C 895.666 436.379 895.848 436.666 896.078 436.978 C 896.307 437.293 896.581 437.631 896.869 437.964 C 897.158 438.295 897.464 438.608 897.754 438.874 C 898.043 439.126 898.31 439.322 898.505 439.439 C 898.816 439.598 899.145 439.694 899.481 439.734 C 899.724 439.758 899.982 439.769 900.253 439.769 C 900.38 439.769 900.511 439.767 900.66 439.763 C 900.802 439.766 900.949 439.768 901.1 439.772 C 901.208 439.775 901.308 439.835 901.366 439.932 C 901.533 440.212 901.778 440.672 902.185 441.439 C 902.387 441.827 902.642 442.317 902.906 442.856 C 903.172 443.398 903.411 443.941 903.628 444.457 C 903.844 444.969 904.057 445.483 904.279 446.022 C 904.674 446.965 905.135 447.995 905.653 449.089 C 906.177 450.19 906.746 451.369 907.323 452.608 C 907.852 453.854 908.341 455.163 908.784 456.511 C 909.088 457.508 909.372 458.507 909.642 459.484 C 909.917 460.455 910.228 461.416 910.568 462.354 C 910.942 463.299 911.357 464.253 911.8 465.227 C 912.243 466.203 912.702 467.21 913.159 468.225 C 913.501 469.032 913.825 469.824 914.125 470.59 C 914.424 471.355 914.717 472.109 915.005 472.847 C 915.439 473.958 915.816 474.979 916.154 475.904 C 916.509 476.847 916.821 477.693 917.096 478.44 C 917.653 479.919 918.103 481.084 918.398 481.82 C 918.522 482.13 919.104 483.613 919.916 485.787 C 920.276 486.807 920.68 487.954 921.113 489.169 C 921.628 490.426 922.248 491.82 922.874 493.223 C 923.232 494.062 923.566 494.855 923.877 495.635 C 924.184 496.409 924.498 497.239 924.816 498.136 C 925.126 499.013 925.468 500.002 925.929 501.174 C 926.484 502.61 927.321 504.614 928.582 507.549 C 929.401 509.48 930.411 511.826 931.558 514.446 C 932.759 517.185 933.998 519.982 935.149 522.542 C 936.057 524.487 936.843 526.142 937.512 527.52 C 938.162 528.872 938.701 529.96 939.125 530.833 C 939.665 531.947 940.065 532.772 940.383 533.408 C 940.739 533.806 941.109 534.189 941.473 534.52 L 941.488 534.53 C 941.504 534.524 941.52 534.516 941.534 534.51 C 941.646 534.425 941.752 534.342 941.845 534.255 C 942.056 534.058 942.245 533.836 942.41 533.568 C 942.574 533.304 942.705 532.958 942.808 532.538 C 942.701 532.272 942.583 531.973 942.45 531.629 C 942.084 530.636 941.676 529.51 941.256 528.351 C 940.84 527.203 940.44 526.111 940.056 525.101 C 939.674 524.095 939.302 523.152 938.925 522.211 C 938.549 521.272 938.166 520.318 937.786 519.374 L 937.786 519.374 Z  M 950.518 464.765 L 950.52 464.764 C 950.901 464.711 951.282 464.671 951.668 464.639 C 952.058 464.607 952.456 464.583 952.872 464.567 C 953.045 464.564 953.224 464.562 953.406 464.562 C 953.661 464.562 953.929 464.566 954.218 464.573 C 954.762 464.592 955.418 464.639 956.23 464.733 C 956.696 464.801 957.191 464.888 957.726 465 C 958.242 465.133 958.785 465.303 959.371 465.516 C 959.958 465.754 960.633 466.079 961.312 466.46 C 961.906 466.835 962.41 467.211 962.825 467.605 L 962.873 467.659 C 962.983 467.799 963.082 467.935 963.17 468.071 C 963.169 468.041 963.168 468.011 963.167 467.981 C 963.089 467.32 962.926 466.667 962.759 466.098 C 962.607 465.587 962.414 465.096 962.226 464.662 C 962.022 464.212 961.824 463.796 961.668 463.429 C 961.389 462.719 961.148 461.996 960.929 461.279 C 960.71 460.561 960.512 459.85 960.318 459.156 C 959.981 457.899 959.526 456.788 958.967 455.871 C 958.31 454.938 957.602 454.043 956.874 453.13 C 956.186 452.237 955.536 451.328 954.957 450.371 C 954.52 449.532 954.143 448.663 953.796 447.76 C 953.466 446.883 953.167 445.993 952.9 445.099 C 952.631 444.228 952.38 443.376 952.15 442.531 L 952.142 442.5 C 951.963 441.687 951.798 440.883 951.629 440.103 C 951.463 439.408 951.277 438.628 951.052 437.823 C 950.815 437.039 950.479 436.197 950.014 435.374 C 949.296 434.529 948.218 433.718 946.703 433.018 C 945.822 432.691 944.892 432.395 943.991 432.14 C 943.087 431.882 942.219 431.666 941.378 431.499 C 940.31 431.321 939.288 431.178 938.324 431.058 C 937.356 430.937 936.457 430.83 935.61 430.742 C 934.447 430.602 933.33 430.543 932.259 430.543 C 931.922 430.543 931.59 430.55 931.262 430.56 C 929.884 430.607 928.608 430.731 927.427 430.904 C 926.251 431.076 925.16 431.295 924.109 431.531 C 922.989 431.783 921.926 432.17 920.862 432.607 C 919.797 433.042 918.722 433.525 917.572 433.96 C 916.512 434.358 915.428 434.708 914.385 435.057 C 913.363 435.46 912.394 435.914 911.503 436.452 C 911.211 436.627 910.932 436.809 910.667 436.993 C 910.402 437.176 910.153 437.364 909.92 437.552 C 909.472 437.905 909.223 438.187 909.113 438.371 C 909.007 438.552 909.001 438.614 908.997 438.706 C 908.997 438.712 908.997 438.723 909 438.774 C 908.998 438.961 909.098 439.186 909.305 439.488 C 909.391 439.556 909.478 439.615 909.571 439.668 C 909.641 439.686 909.726 439.699 909.873 439.7 C 909.942 439.7 910.025 439.696 910.123 439.687 L 910.145 439.686 L 910.206 439.686 C 910.502 439.701 910.854 439.751 911.274 439.859 C 911.692 439.977 912.165 440.146 912.697 440.375 L 912.741 440.398 C 913.308 440.718 913.867 441.068 914.373 441.421 C 914.863 441.76 915.318 442.117 915.717 442.527 C 915.967 442.784 916.186 443.049 916.393 443.333 C 916.954 444.146 917.393 445.062 917.737 445.978 C 918.086 446.88 918.395 447.659 918.653 448.309 C 918.935 448.914 919.187 449.453 919.403 449.931 C 919.674 450.47 919.928 451.018 920.219 451.609 C 920.422 451.967 920.656 452.352 920.939 452.792 C 921.237 453.296 921.596 453.916 922.036 454.742 L 922.047 454.766 C 922.414 455.603 922.768 456.653 923.06 457.875 L 923.065 457.902 C 923.282 459.22 923.435 460.555 923.585 461.783 C 923.872 463.746 924.074 465.028 924.226 465.958 C 924.289 466.505 924.322 466.993 924.322 467.433 C 924.322 467.522 924.321 467.613 924.318 467.705 C 924.301 468.198 924.248 468.651 924.139 469.086 L 924.137 469.094 L 924.138 469.094 C 923.974 469.725 923.841 470.252 923.684 470.787 C 923.54 471.292 923.399 471.834 923.191 472.472 C 923.122 472.773 923.075 473.076 923.073 473.342 C 923.073 473.346 923.073 473.35 923.073 473.354 L 923.074 473.361 C 923.074 473.419 923.076 473.476 923.08 473.541 C 923.102 473.844 923.177 474.067 923.297 474.23 C 923.385 474.271 923.459 474.286 923.555 474.288 C 923.601 474.287 923.648 474.283 923.679 474.279 C 923.898 474.241 924.233 474.11 924.65 473.9 C 925.213 473.62 925.902 473.264 926.692 472.869 C 927.52 472.487 928.398 472.093 929.256 471.744 C 930.293 471.328 931.242 470.943 932.117 470.606 C 932.979 470.296 933.775 470.027 934.532 469.781 C 935.223 469.568 935.886 469.357 936.506 469.132 C 937.135 468.901 937.731 468.666 938.297 468.44 C 939.051 468.123 939.778 467.82 940.507 467.536 C 941.236 467.252 941.963 466.988 942.705 466.734 C 943.437 466.508 944.163 466.302 944.881 466.094 C 945.6 465.888 946.32 465.684 947.048 465.49 C 947.615 465.339 948.19 465.198 948.775 465.075 C 949.358 464.954 949.941 464.849 950.518 464.765" fill="rgb(234,234,234)"/><path d=" M 1163.311 557.717 L 1161.898 556.745 C 1161.045 556.147 1073.845 496.769 940.094 496.769 C 938.402 496.769 936.727 496.777 935.081 496.795 C 935.081 496.795 932.977 496.713 929.102 496.713 C 899.849 496.713 797.477 501.039 708.222 556.718 L 706.689 557.675 L 739.769 578.234 L 725.587 632.989 L 728.301 630.679 C 728.89 630.183 788.611 580.823 935.095 578.007 C 935.121 578.007 937.949 577.873 942.986 577.873 C 969.019 577.873 1060.471 581.551 1143.858 628.903 L 1146.311 630.302 L 1130.338 578.215 L 1163.311 557.717" fill="rgb(205,127,50)"/><g clip-path="url(#_clipPath_P3kRv2Z6Nduhu6O9TCt82tqb0AyzWjhI)"><text transform="matrix(1,0,0,1,837.311,565.874)" style="font-family:'Odibee Sans';font-weight:400;font-size:68px;font-style:normal;fill:#ffffff;stroke:none;">BRONZE</text></g><defs><clipPath id="_clipPath_P3kRv2Z6Nduhu6O9TCt82tqb0AyzWjhI"><rect x="0" y="0" width="202.372" height="72" transform="matrix(1,0,0,1,837.311,507.53)"/></clipPath></defs></g></g></svg>