<?xml version="1.0" encoding="UTF-8" standalone="no"?>
<!DOCTYPE svg PUBLIC "-//W3C//DTD SVG 1.1//EN" "http://www.w3.org/Graphics/SVG/1.1/DTD/svg11.dtd">
<svg version="1.1" xmlns="http://www.w3.org/2000/svg" xmlns:xlink="http://www.w3.org/1999/xlink" preserveAspectRatio="xMidYMid meet" viewBox="0 0 640 640" width="512" height="512"><defs><path d="M0 0L640 0L640 640L0 640L0 0Z" id="b63MUKeRy"></path><path d="M491.24 271.76C491.24 366.27 414.51 443 320 443C225.49 443 148.76 366.27 148.76 271.76C148.76 177.25 225.49 100.52 320 100.52C414.51 100.52 491.24 177.25 491.24 271.76Z" id="a39jYLbPwB"></path><path d="M355.68 473.02C348.55 473.02 291.45 473.02 284.32 473.02C222.46 473.02 164.18 502.03 120.22 554.71C76.48 607.13 52.39 676.33 52.39 749.56C52.39 761.19 60.37 770.62 70.23 770.62C120.18 770.62 519.82 770.62 569.77 770.62C579.63 770.62 587.61 761.19 587.61 749.56C587.61 676.33 563.52 607.13 519.78 554.71C475.82 502.03 417.54 473.02 355.68 473.02Z" id="daNuq7qUIK"></path></defs><g><g><g><use xlink:href="#b63MUKeRy" opacity="1" fill="#f6f6f6" fill-opacity="1"></use></g><g><use xlink:href="#a39jYLbPwB" opacity="1" fill="#252f3f" fill-opacity="1"></use></g><g><use xlink:href="#daNuq7qUIK" opacity="1" fill="#252f3f" fill-opacity="1"></use><g><use xlink:href="#daNuq7qUIK" opacity="1" fill-opacity="0" stroke="#000000" stroke-width="1" stroke-opacity="0"></use></g></g></g></g></svg>